<svg id="Layer_1" data-name="Layer 1" xmlns="http://www.w3.org/2000/svg" viewBox="0 0 938.47 207.65"><defs><style>.cls-1{fill:#f1ffff;}</style></defs><title>nabla-azure</title><path class="cls-1" d="M934.8,183.13,882.27,15a16.1,16.1,0,0,0-15.37-11.3H795.75A16.1,16.1,0,0,0,780.5,14.61L734.9,149.39A17.11,17.11,0,0,1,718.69,161H689.24a16.1,16.1,0,0,1-16.1-16.1V19.72A16.1,16.1,0,0,0,657,3.62H607.48a16.1,16.1,0,0,0-16.1,16.1v97.92a4.21,4.21,0,0,1-7.51,2.6A52.38,52.38,0,0,0,572,109.51a15.81,15.81,0,0,1-3.44-23.46c7.47-8.77,9.92-21.21,9-35.87C576,23.36,554.08,3.64,525.23,3.64H408.71a16.1,16.1,0,0,0-16.1,16.1V125.3a4.21,4.21,0,0,1-8.23,1.25L349.53,15a16.1,16.1,0,0,0-15.37-11.3H263a16.1,16.1,0,0,0-15.25,10.95L207,135.38a4.21,4.21,0,0,1-8.2-1.35V19.74a16.1,16.1,0,0,0-16.1-16.1H172.27a16.1,16.1,0,0,0-16.1,16.1V62c0,15.69-20.15,22.11-29.23,9.31l-43.2-60.9A16.1,16.1,0,0,0,70.62,3.64H19.67a16.1,16.1,0,0,0-16.1,16.1V187.91A16.1,16.1,0,0,0,19.67,204H30.09a16.1,16.1,0,0,0,16.1-16.1V143.83c0-15.61,20-22.08,29.14-9.44l45.58,63a16.1,16.1,0,0,0,13,6.66h48.74l23.54,0h17a16.1,16.1,0,0,0,15.5-11.74l6.82-24.22,7.46-25.3,9.88-34.41c4.55-15.86,27.18-15.42,31.11.61l8.28,33.8,6.13,25.3,5.79,23.68A16.1,16.1,0,0,0,329.87,204h56.82l22,0H532.49c21,0,39.3-6.63,49.72-11.37a8.9,8.9,0,0,1,11.36,3.42,16.09,16.09,0,0,0,13.9,8H756a16.1,16.1,0,0,0,15.5-11.74l6.82-24.22,7.46-25.3,9.88-34.41c4.55-15.86,27.18-15.42,31.11.61l8.28,33.8,6.13,25.3L847,191.75A16.1,16.1,0,0,0,862.61,204h56.82A16.1,16.1,0,0,0,934.8,183.13ZM474.37,50.86a16.1,16.1,0,0,1,16.1-16.1h1.75c13.32,0,24.5,3.2,24.5,27.16,0,23.44-14.11,27.7-24.5,27.7h-1.75a16.1,16.1,0,0,1-16.1-16.1Zm21,121.32h-4.94a16.1,16.1,0,0,1-16.1-16.1V130.76a16.1,16.1,0,0,1,16.1-16.1h4.94c12,0,22.64,7.72,22.64,28.5C518,165,508.19,172.18,495.41,172.18Z"/><path class="cls-1" d="M935.54,22.89a19.8,19.8,0,0,1-39.59,0c0-10.69,8.81-19.27,19.85-19.27S935.54,12.2,935.54,22.89Zm-34.66,0c0,8.58,6.35,15.39,15,15.39,8.47,0,14.69-6.82,14.69-15.27S924.38,7.5,915.8,7.5,900.88,14.43,900.88,22.89ZM912.75,33h-4.47V13.72a38.87,38.87,0,0,1,7.4-.59c3.64,0,5.28.59,6.7,1.41a5.35,5.35,0,0,1,1.88,4.23c0,2.11-1.65,3.76-4,4.47v.23c1.88.7,2.94,2.11,3.52,4.7.59,2.94.94,4.11,1.42,4.82h-4.82c-.58-.7-.94-2.46-1.53-4.7-.34-2.11-1.52-3.06-4-3.06h-2.11Zm.11-10.93H915c2.47,0,4.47-.82,4.47-2.82,0-1.77-1.29-2.94-4.11-2.94a10.5,10.5,0,0,0-2.47.24Z"/></svg>