<svg id="Layer_1" data-name="Layer 1" xmlns="http://www.w3.org/2000/svg" viewBox="0 0 393.01 172.87"><defs><style>.cls-1{fill:#fbfbfb;}</style></defs><title>nohri</title><path class="cls-1" d="M72,75.4c-4.1,4.26-8.42,8.34-12.2,12.87C57.74,90.73,56.62,94,55,96.84c-.36.63-1.11,1-1.54,1.62-1.53,2.18-2.9,4.48-4.5,6.6-2.45,3.24-5.66,6.08-7.4,9.64s-4.75,6.35-6.2,10A7.35,7.35,0,0,0,35,127c-.13,2.11.57,4.4-1.69,6-.38.26-.16,1.29-.36,1.91-.42,1.27-.94,2.51-1.42,3.76a5.78,5.78,0,0,0-.56,1.61c-.09,1.74.26,3.6-1.65,4.71a.77.77,0,0,0-.28.67c.79,3-1.29,5.3-2.41,7.55-1.7,3.43-2.12,7.29-4.06,10.5-.77,1.28-2.48,2-3.8,2.93-.65.46-1.47.69-2.08,1.18-1.4,1.14-4.48,1.23-5.8.06-.19-.17-.33-.56-.48-.56-3.54.15-4.59-3.19-4.91-5.09-.73-4.39-.29-9-.13-13.51,0-1.11.85-2.19,1.29-3.29s.86-2.21,1.32-3.3c.13-.3.59-.6.53-.81-.78-3,1.61-5.07,2.34-7.61.59-2,2-3.8,3.12-5.68.16-.29.55-.52.57-.8a15.23,15.23,0,0,1,1.94-6.48c.91-1.68.78-3.91,2-5.88,1-1.61.69-3.87,1.92-5.91,1.55-2.56,1.25-6.19,2.56-9,1.11-2.33,1-5.55,4.84-6.57,1.82-.49,3.68-1.33,5.66-1.84,1.35-.35,2.43-2.05,3.44-3.3a34.19,34.19,0,0,0,1.75-3.1c2.23-3.44,5-6.52,6.55-10.41a3.71,3.71,0,0,1,.88-1.17c4.92-4.9,9.77-9.87,14.81-14.64a14.76,14.76,0,0,1,5.28-3.27c3-1,5.56-2.91,9.11-2.48A18.49,18.49,0,0,1,84,56.95c3.15,2.27,4.31,5.77,5.68,9.18,1.12,2.8,2.48,5.5,3.69,8.26a3.77,3.77,0,0,1,.22,1.48,5.41,5.41,0,0,0,1.47,4.32c.73.74.3,2.55.61,3.83s.95,2.67,1.39,4a8,8,0,0,1,.58,2.37q0,24.65,0,49.3c0,.58.08,1.44-.24,1.69-2.64,2-1.93,4.95-1.67,7.46.41,3.9-.85,7.26-2.29,10.67-.06.15-.14.35-.27.42-1.64.86-3.22,2-5,2.45s-3.87.68-5.25-1.37c-.24-.36-1.07-.32-1.61-.49s-1.21-.2-1.35-.52c-.93-2-2.3-4.11-2.45-6.25-.36-4.95-.13-9.94-.1-14.91,0-.65,0-1.64.37-1.91,2.17-1.51,1.63-3.71,1.63-5.75,0-11.38.05-22.76,0-34.13,0-1.19-.85-2.36-1.24-3.56a13,13,0,0,1-.71-2.82c-.17-2,.51-4.27-1.69-5.72a1.33,1.33,0,0,1-.31-1.16c.89-3.3-2.76-5-2.37-8.06Z"/><path class="cls-1" d="M215.43,103.53c3.16-1.41,5.91-2.53,8.55-3.85,1.94-1,3.62-2.64,5.63-3.21,2.65-.75,4.57-3.29,7.72-2.79a22,22,0,0,0,6.05,0c6.62-.81,11.59,2,15.91,6.68,3,3.18,6.15,6.15,9.06,9.38,1.21,1.34,1.82,3.19,2.93,4.64,2.66,3.5,5.94,6.65,8,10.45,1.35,2.46,3.56,5.15,2.51,8.49-.33,1.05-.82,2.05-1.24,3.08-.25.6-.53,1.18-.75,1.79s-.14,1-.41,1.42c-.87,1.19-7.12,3.25-8.41,2.52a36.61,36.61,0,0,1-7.21-4.87c-1.77-1.67-2.49-4.48-4.32-6-2.66-2.29-3.59-5.65-5.91-8.05-3.43-3.55-6.89-7.08-10.48-10.45a3.67,3.67,0,0,0-3-.44,15.84,15.84,0,0,0-3.87,1.87c-3.16,1.87-6.36,3.66-8.83,6.52-1.74,2-3.72,3.84-5.65,5.69-2.43,2.32-3.58,5.34-4.74,8.37a5,5,0,0,1-.91,1.44c-1.33,1.53-3.29,2.56-3.32,5.07,0,.68-1,1.59-1.79,2a30.35,30.35,0,0,1-7.25,3c-1.28.25-2.84-1.58-4.34-1.7-2.22-.18-1.93-2-2.84-3-2.76-3-1.59-6.35-1.71-9.55-.19-5-.1-10.11,0-15.17A9.84,9.84,0,0,1,196,113.9a9,9,0,0,0,.86-2.49,54,54,0,0,0,0-6.82,11.39,11.39,0,0,0-1.11-2.87,8.78,8.78,0,0,1-.82-2.51c-.11-2.44,0-4.89-.05-7.33,0-1.74.29-3.52-1.52-4.78-.44-.31-.46-1.38-.48-2.11-.06-2.36,0-4.72,0-7.08,0-1.83.34-3.71-1.56-5-.39-.27-.42-1.23-.44-1.88-.05-2.19.11-4.39-.09-6.57-.11-1.14-.86-2.2-1.22-3.33a16.44,16.44,0,0,1-.72-3.07c-.31-2.64.59-5.32-1.67-7.82-1-1.1-.28-3.72-.38-5.65-.12-2.18.64-4.54-1.64-6.26-.5-.38-.25-1.74-.37-2.65-.44-3.27,0-6.39-1.47-9.86-1.38-3.17-2.14-8,1.06-11.61.3-.33.28-.94.42-1.42s.12-1.21.43-1.39a20.17,20.17,0,0,1,5-2.47c1.79-.44,3.85-.74,5.25,1.32.28.41,1.24.32,1.85.57a2.9,2.9,0,0,1,1.41.86c.78,1.31,1.94,2.69,2,4.08.16,4.29,3.38,7.89,2.4,12.44-.4,1.86-.57,4,1.52,5.49.39.27.39,1.24.4,1.89,0,2.11-.14,4.23.07,6.31a18.59,18.59,0,0,0,1.26,3.56A15.86,15.86,0,0,1,207,48.3c.35,2.71-.9,5.7,1.77,8,.53.46.16,1.93.28,2.93.38,3.11-1.21,6.58,1.79,9.24.37.32.21,1.29.22,2,0,2.7,0,5.39,0,8.09,0,.67-.19,1.61.17,2,3.32,3.34,1.33,7.49,1.81,11.25.21,1.64-.14,3.26,1.48,4.57.62.5.44,2,.56,3.08C215.22,100.79,215.31,102.2,215.43,103.53Z"/><path class="cls-1" d="M147.5,77.49c3.31.22,5.76-.43,7.92,1.77.82.83,3.06.29,4.65.32,1.85,0,3.72-.13,5.56.06a9.85,9.85,0,0,1,3.07,1.19c1.44.7,3.17,1.2,4.16,2.33,1.51,1.72,2.4,4,3.73,5.88,2,2.9,1.35,6.81,3.77,9.57.45.51.26,1.61.3,2.45.09,2-.47,4,1.61,5.51.43.3.4,1.4.4,2.14,0,8.26.06,16.52,0,24.77a6.7,6.7,0,0,1-1.12,2.86,89.36,89.36,0,0,1-5.06,8.71,29.88,29.88,0,0,1-5.23,5.23,30.82,30.82,0,0,1-4.13,2.46,58.87,58.87,0,0,1-6,3.6c-3.18,1.43-6.41,2.56-8.93,5.22a12.29,12.29,0,0,1-4.79,2.73c-3.11,1.1-6,3.08-9.64,2.36a26.57,26.57,0,0,1-4.24-1.48c-5.35-2-8.14-6.69-11.89-10.32-1.61-1.56-2.52-3.89-3.63-5.93-1.26-2.31-2.8-4.58-3.49-7.07-.75-2.73-2.93-4.75-2.77-8,.37-7.57.07-15.16.18-22.75,0-1.12.82-2.21,1.14-3.35,1.34-4.69,6.38-6.69,8.24-10.56,3-6.26,8.78-9.63,13-14.6A9.32,9.32,0,0,1,139,79.91C142.16,79.17,144.67,75.88,147.5,77.49Zm7.83,18.86c-1,.44-2.24,1.46-3.34,1.34a8.36,8.36,0,0,0-8.36,3.8c-.76,1.06-2,1.77-2.88,2.77-1.58,1.77-3.1,3.61-4.56,5.49-.58.74-.75,1.86-1.43,2.44-3.5,3-5.6,6.43-4.72,11.28.31,1.71-.13,3.55.11,5.29a14.9,14.9,0,0,0,1.36,3.76,32,32,0,0,0,2.68,5.66,26.53,26.53,0,0,0,5.34,5.93c.85.66,3,.18,4.28-.37a57.36,57.36,0,0,0,5.59-3.3c2.85-1.62,6.07-2.77,8.56-4.82,4.07-3.36,7-7.58,6.56-13.34-.18-2.51,0-5-.05-7.57,0-.73,0-1.81-.45-2.12-1.9-1.33-1.46-3.21-1.58-5a16.11,16.11,0,0,0-.62-3.37,39.33,39.33,0,0,0-1.38-3.76c-.34-.85-.55-2-1.21-2.44A19.94,19.94,0,0,0,155.33,96.35Z"/><path class="cls-1" d="M294,119c0-4.63.09-9.27-.06-13.9,0-1.2-.84-2.36-1.26-3.55a8,8,0,0,1-.67-2.32c-.08-3.45-.15-6.91,0-10.36.06-1.2.85-2.35,1.3-3.53.23-.61.45-1.22.66-1.84.16-.46.17-1.18.49-1.36a20.17,20.17,0,0,1,5-2.43c1.8-.43,3.88-.64,5.22,1.42.21.32.91.43,1.38.43,1.51,0,1.95.82,2.15,2.22.28,2,2,2.38,3.75,1.22a8.5,8.5,0,0,1,3.51-1.34c1.93-.26,4,.35,5.53-1.63.47-.6,2-.39,3.12-.42,1.68-.06,3.39.15,5-.07a19.14,19.14,0,0,0,3.55-1.28,8.52,8.52,0,0,1,2.33-.66,42.67,42.67,0,0,1,6.31,0A14.51,14.51,0,0,1,344.88,81a5.42,5.42,0,0,0,1.59.61,2,2,0,0,1,2.19,2.18,5.23,5.23,0,0,0,.61,1.59c.45,1.09,1.4,2.25,1.26,3.25-.21,1.51-1.57,2.88-1.71,4.38-.21,2.2-1.69,2.2-3.07,3.11-2,1.29-4.48.93-5.86,2-3.58,2.73-7.39,1.25-11.06,1.79a10.32,10.32,0,0,0-2.45.94,8.6,8.6,0,0,1-2.18,1c-3.76.4-6.28,3.4-8.22,6.66-1.83,3-1.71,5.92-1.75,9,0,.65,0,1.63.38,1.9,2.07,1.44,1.61,3.53,1.62,5.5,0,6.07.07,12.13-.06,18.2,0,1.19-.81,2.37-1.26,3.55-.23.61-.49,1.21-.7,1.82s-.14,1.2-.45,1.38a19.59,19.59,0,0,1-5,2.47c-1.78.43-3.87.7-5.24-1.36-.24-.37-1.07-.33-1.61-.52s-1.33-.3-1.52-.68c-.9-1.8-1.63-3.68-2.42-5.53-1.22-2.85-2.48-5.68-3.63-8.55a6.8,6.8,0,0,1-.39-2.44C294,128.47,294,123.75,294,119Z"/><path class="cls-1" d="M362.78,123c0-6.65-.07-13.31.06-20,0-1.18.85-2.35,1.3-3.52a5.63,5.63,0,0,0,.61-1.59c.07-1.43.66-2.18,2.15-2.21a2.72,2.72,0,0,0,1.41-.43c3.27-2.21,5.9-2.21,9.17,0a6.47,6.47,0,0,0,1.65.48c.47.15,1.31.31,1.32.52.2,2.74,3.39,4.45,2.55,7.51-.11.4,0,1-.25,1.2-2.62,1.93-1.71,4.71-1.73,7.2-.08,8.08,0,16.17,0,24.25,0,1.58-.14,3.07,1.43,4.3,1.24,1,.71,6.28-.36,7.58a3.94,3.94,0,0,0-1,1.89c-.14,1.41-.67,2.12-2.16,2.24a3.75,3.75,0,0,0-1.92,1,5.15,5.15,0,0,1-6.15,0c-1.46-1.1-3.62-1.56-4.61-2.93-1.6-2.21-3.45-4.51-3.45-7.56C362.79,136.33,362.78,129.68,362.78,123Z"/><path class="cls-1" d="M368.85,37c-.46-5,5.05-10.24,10.27-10.15,4.9.09,10.2,5.18,10.08,10.45-.11,4.82-5.16,10-10.25,10S368.3,42.13,368.85,37Z"/></svg>